<?xml version="1.0" standalone="no"?>
<!DOCTYPE svg PUBLIC "-//W3C//DTD SVG 20010904//EN"
 "http://www.w3.org/TR/2001/REC-SVG-20010904/DTD/svg10.dtd">
<svg version="1.0" xmlns="http://www.w3.org/2000/svg"
 width="337.000000pt" height="100.000000pt" viewBox="0 0 337.000000 100.000000"
 preserveAspectRatio="xMidYMid meet">

<g transform="translate(0.000000,100.000000) scale(0.100000,-0.100000)"
fill="#000000" stroke="none">
<path d="M111 958 c6 -12 33 -43 59 -69 153 -153 425 -171 600 -40 50 37 117
117 108 127 -3 2 -27 -5 -53 -16 -76 -32 -189 -59 -283 -66 -106 -8 -235 13
-353 56 -46 16 -84 30 -86 30 -2 0 2 -10 8 -22z"/>
<path d="M15 874 c68 -162 95 -325 77 -468 -10 -79 -43 -199 -77 -280 -7 -17
-6 -17 21 -3 40 21 117 105 143 155 69 135 66 328 -6 451 -33 57 -92 121 -134
145 -32 19 -32 19 -24 0z"/>
<path d="M945 872 c-198 -121 -250 -442 -105 -645 33 -46 114 -117 133 -117 3
0 -8 33 -23 73 -80 205 -80 426 0 633 15 41 28 74 27 74 -1 0 -16 -8 -32 -18z"/>
<path d="M1100 240 l0 -230 130 0 130 0 0 35 0 34 -87 3 -88 3 0 60 0 60 78 3
77 3 0 34 0 34 -77 3 -78 3 0 55 0 55 83 3 82 3 0 34 0 35 -125 0 -125 0 0
-230z"/>
<path d="M1400 240 l0 -230 93 0 c169 0 202 38 202 235 0 103 -3 125 -20 155
-32 54 -74 70 -182 70 l-93 0 0 -230z m157 160 c43 -15 53 -47 53 -161 0 -136
-18 -169 -91 -169 l-29 0 0 170 c0 189 -2 184 67 160z"/>
<path d="M1750 280 c0 -214 6 -237 62 -261 40 -17 135 -17 167 0 12 7 31 31
42 54 16 36 19 67 19 220 l0 177 -45 0 -45 0 0 -185 c0 -172 -1 -186 -20 -205
-25 -25 -41 -25 -71 -1 -23 19 -24 24 -27 205 l-3 186 -40 0 -39 0 0 -190z"/>
<path d="M377 225 c-68 -17 -105 -35 -170 -82 -40 -29 -107 -109 -107 -127 0
-3 24 6 54 19 215 95 450 92 709 -10 9 -4 17 -3 17 3 0 17 -92 113 -133 139
-98 62 -257 87 -370 58z"/>
</g>
</svg>
