<?xml version="1.0" encoding="UTF-8"?>
<svg version="1.1" xmlns="http://www.w3.org/2000/svg" width="512" height="512">
<path d="M0 0 C4.63535813 2.15213056 8.01334219 5.23793392 10 10 C10.47885139 13.8096424 10.37755228 17.54335203 10.25 21.375 C10.1675 24.88125 10.085 28.3875 10 32 C17.92 32 25.84 32 34 32 C33.84247911 25.0293857 33.84247911 25.0293857 33.63964844 18.06005859 C33.57308983 12.20826874 33.83590772 8.48122513 38 4 C43.56647783 -0.94745776 48.85567679 -0.56412253 56.0703125 -0.50793457 C57.90925079 -0.51729451 57.90925079 -0.51729451 59.78533936 -0.52684355 C63.18098514 -0.54002813 66.57574463 -0.53529705 69.97133636 -0.52289867 C73.63603245 -0.51384517 77.30065131 -0.52781937 80.96533203 -0.53881836 C88.14150066 -0.55660503 95.31750195 -0.55276299 102.49367714 -0.5411678 C108.32587685 -0.53213431 114.15802967 -0.5309091 119.99023438 -0.53526306 C120.82029747 -0.53587599 121.65036057 -0.53648893 122.50557709 -0.53712043 C124.19183351 -0.53839933 125.87808992 -0.53969619 127.56434631 -0.5410108 C143.37645506 -0.55241702 159.18847104 -0.53930223 175.00056458 -0.51780933 C188.56813117 -0.4999383 202.13556087 -0.50304239 215.703125 -0.52148438 C231.45864109 -0.54289034 247.21407589 -0.55131838 262.96960449 -0.53903532 C264.64965819 -0.53776112 266.3297119 -0.53650364 268.00976562 -0.53526306 C268.83638451 -0.53464596 269.66300339 -0.53402886 270.51467133 -0.53339306 C276.33987886 -0.52993933 282.16503483 -0.53576898 287.99023438 -0.54518127 C295.08922474 -0.55639961 302.18803819 -0.55336479 309.28700829 -0.5320583 C312.90906893 -0.52154553 316.5308346 -0.51742963 320.15289307 -0.53065491 C324.07865803 -0.54477233 328.00393995 -0.52791609 331.9296875 -0.50793457 C333.07540222 -0.51685746 334.22111694 -0.52578034 335.40155029 -0.53497362 C341.40116637 -0.47555653 345.42116526 -0.29930666 350 4 C354.62414436 9.14954447 354.56918239 13.6656992 354.50793457 20.24804688 C354.51729451 21.7929694 354.51729451 21.7929694 354.52684355 23.36910248 C354.54279433 26.81921806 354.53016059 30.26862921 354.51757812 33.71875 C354.52299829 36.19263115 354.53012035 38.66650907 354.53881836 41.14038086 C354.55517187 47.16154513 354.55276797 53.18243309 354.5411678 59.20358658 C354.53212996 64.09757371 354.53091098 68.99150496 354.53526306 73.88549805 C354.53587599 74.5823438 354.53648893 75.27918956 354.53712043 75.99715185 C354.53839935 77.41283228 354.5396962 78.82851269 354.5410108 80.24419308 C354.5524138 93.51542281 354.53930731 106.78654197 354.51780933 120.05775356 C354.49993857 131.44220357 354.50304275 142.82649043 354.52148438 154.2109375 C354.54289606 167.43504777 354.55131519 180.65906116 354.53903532 193.88318634 C354.53776114 195.29362486 354.53650366 196.7040634 354.53526306 198.11450195 C354.53433741 199.15541434 354.53433741 199.15541434 354.53339306 200.21735525 C354.52994104 205.10480674 354.53576528 209.99219671 354.54518127 214.87963867 C354.5575787 221.4591672 354.54873751 228.03843524 354.52560425 234.61795044 C354.52031021 237.03426603 354.52184273 239.45060752 354.53065491 241.86691284 C354.54156594 245.16227801 354.52789922 248.45665135 354.50793457 251.75195312 C354.5213189 253.19037693 354.5213189 253.19037693 354.53497362 254.6578598 C354.4687886 260.27995574 353.78515161 263.55770504 350 268 C345.04232133 272.34489106 340.95846775 272.60021185 334.6640625 272.609375 C333.78471039 272.62591125 332.90535828 272.64244751 331.99935913 272.65948486 C329.20783408 272.70782914 326.41685324 272.72930535 323.625 272.75 C321.72523324 272.77817108 319.82549168 272.8081001 317.92578125 272.83984375 C313.283899 272.91358434 308.64231645 272.96324173 304 273 C303.68764404 273.66169189 303.37528809 274.32338379 303.0534668 275.00512695 C296.88532993 287.7575838 287.58085732 297.48463818 274.0625 302.375 C260.67156007 306.33762508 246.47397362 305.70554175 234 299 C230.79438718 296.87700765 227.88890218 294.53317915 225 292 C224.05640625 291.21496094 224.05640625 291.21496094 223.09375 290.4140625 C217.20837487 285.12238749 215.91331893 280.82663785 212 273 C142.04 273 72.08 273 0 273 C-1.65 276.3 -3.3 279.6 -5 283 C-13.49200529 294.76906856 -24.56333429 301.79064412 -38.75 304.53125 C-51.40335389 306.14970224 -64.45215921 303.38558093 -74.6875 295.6875 C-76.13964733 294.47567283 -77.57791932 293.24697373 -79 292 C-79.6290625 291.47664063 -80.258125 290.95328125 -80.90625 290.4140625 C-84.74291748 286.96442727 -86.95516016 283.40718708 -89.20703125 278.76171875 C-89.99750854 277.14269653 -89.99750854 277.14269653 -90.80395508 275.4909668 C-91.1986499 274.66894775 -91.59334473 273.84692871 -92 273 C-93.18029785 272.9906543 -94.3605957 272.98130859 -95.57666016 272.97167969 C-99.97156998 272.93169352 -104.36578613 272.86591085 -108.76025391 272.79248047 C-110.65925154 272.7643208 -112.5583653 272.74308142 -114.45751953 272.72900391 C-117.19363638 272.70750482 -119.92836452 272.66081992 -122.6640625 272.609375 C-123.93003769 272.60753204 -123.93003769 272.60753204 -125.22158813 272.60565186 C-130.59777139 272.47320056 -133.81117448 271.67107104 -138 268 C-142.33705227 262.82396436 -142.57660524 258.87240789 -142.51757812 252.41796875 C-142.5245874 251.47088043 -142.53159668 250.52379211 -142.53881836 249.54800415 C-142.55637658 246.42753498 -142.54478301 243.30797788 -142.53125 240.1875 C-142.53394553 238.01326321 -142.53782846 235.83902759 -142.54284668 233.66479492 C-142.5487388 229.11202497 -142.54018773 224.55956931 -142.52148438 220.00683594 C-142.49869531 214.17588787 -142.51181988 208.3456763 -142.53577423 202.51475525 C-142.55023975 198.02627022 -142.54562269 193.53795932 -142.53526306 189.04946899 C-142.53259788 186.89970818 -142.53585819 184.74993146 -142.54518127 182.60018921 C-142.55535897 179.59371156 -142.53982802 176.58842068 -142.51757812 173.58203125 C-142.52567505 172.6966568 -142.53377197 171.81128235 -142.54211426 170.89907837 C-142.46750567 165.447522 -141.61645746 162.33512793 -138 158 C-136.16040039 156.47412109 -136.16040039 156.47412109 -134.28515625 155.3984375 C-133.58922363 154.99463867 -132.89329102 154.59083984 -132.17626953 154.17480469 C-127.92106927 151.87774123 -123.61665562 149.68417555 -119.26757812 147.5703125 C-110.37302242 143.03805481 -105.19806989 136.27903278 -99.8125 128.0625 C-95.69722601 121.91099795 -91.49593928 115.87930522 -87 110 C-82.64257323 104.28766449 -78.52258999 98.45266879 -74.5 92.5 C-70.02154274 85.87273426 -65.38191954 79.42289742 -60.52392578 73.06958008 C-56.60424481 67.90542296 -52.98208687 62.57303339 -49.375 57.1875 C-35.68622573 36.93703053 -35.68622573 36.93703053 -25 33 C-24.01 33 -23.02 33 -22 33 C-22.0314209 32.00202393 -22.0314209 32.00202393 -22.06347656 30.98388672 C-22.14700609 27.94774698 -22.19877603 24.91184957 -22.25 21.875 C-22.28351563 20.82828125 -22.31703125 19.7815625 -22.3515625 18.703125 C-22.4308835 12.43676639 -22.2241437 8.74830751 -18 4 C-12.72867143 -1.00776214 -6.89190982 -0.92775709 0 0 Z " fill="#E5E5E5" transform="translate(150,136)"/>
<path d="M0 0 C163.68 0 327.36 0 496 0 C496 86 496 86 492 92 C487.04232133 96.34489106 482.95846775 96.60021185 476.6640625 96.609375 C475.78471039 96.62591125 474.90535828 96.64244751 473.99935913 96.65948486 C471.20783408 96.70782914 468.41685324 96.72930535 465.625 96.75 C463.72523324 96.77817108 461.82549168 96.8081001 459.92578125 96.83984375 C455.283899 96.91358434 450.64231645 96.96324173 446 97 C445.68764404 97.66169189 445.37528809 98.32338379 445.0534668 99.00512695 C438.88532993 111.7575838 429.58085732 121.48463818 416.0625 126.375 C402.67156007 130.33762508 388.47397362 129.70554175 376 123 C372.79438718 120.87700765 369.88890218 118.53317915 367 116 C366.3709375 115.47664063 365.741875 114.95328125 365.09375 114.4140625 C359.20837487 109.12238749 357.91331893 104.82663785 354 97 C284.04 97 214.08 97 142 97 C139.525 101.95 139.525 101.95 137 107 C128.50799471 118.76906856 117.43666571 125.79064412 103.25 128.53125 C90.59664611 130.14970224 77.54784079 127.38558093 67.3125 119.6875 C65.86035267 118.47567283 64.42208068 117.24697373 63 116 C62.3709375 115.47664063 61.741875 114.95328125 61.09375 114.4140625 C57.25708252 110.96442727 55.04483984 107.40718708 52.79296875 102.76171875 C52.00249146 101.14269653 52.00249146 101.14269653 51.19604492 99.4909668 C50.8013501 98.66894775 50.40665527 97.84692871 50 97 C48.81970215 96.9906543 47.6394043 96.98130859 46.42333984 96.97167969 C42.02843002 96.93169352 37.63421387 96.86591085 33.23974609 96.79248047 C31.34074846 96.7643208 29.4416347 96.74308142 27.54248047 96.72900391 C24.80636362 96.70750482 22.07163548 96.66081992 19.3359375 96.609375 C18.06996231 96.60753204 18.06996231 96.60753204 16.77841187 96.60565186 C11.40222861 96.47320056 8.18882552 95.67107104 4 92 C-13.02687669 66.45968496 0 30.69563849 0 0 Z " fill="#F87777" transform="translate(8,312)"/>
<path d="M0 0 C4.63535813 2.15213056 8.01334219 5.23793392 10 10 C10.47885139 13.8096424 10.37755228 17.54335203 10.25 21.375 C10.1675 24.88125 10.085 28.3875 10 32 C17.92 32 25.84 32 34 32 C33.84247911 25.0293857 33.84247911 25.0293857 33.63964844 18.06005859 C33.57077621 12.00485639 33.97153259 8.60396276 38 4 C41.04956002 0.95043998 43.10786792 0.04143818 47.41650391 -0.15869141 C48.67382324 -0.13983887 49.93114258 -0.12098633 51.2265625 -0.1015625 C52.49322754 -0.08689941 53.75989258 -0.07223633 55.06494141 -0.05712891 C56.51779541 -0.0288501 56.51779541 -0.0288501 58 0 C58.05945801 1.44729492 58.05945801 1.44729492 58.12011719 2.92382812 C59.63708915 38.6972426 64.48418913 71.91186636 79 105 C79.47324707 106.09683105 79.47324707 106.09683105 79.95605469 107.21582031 C90.80919145 132.17241148 106.78979549 153.4705917 124.85546875 173.609375 C126 175 126 175 126 176 C37.56 176 -50.88 176 -142 176 C-142 162.1 -142 162.1 -138 158 C-132.13036891 153.87390749 -125.70505065 150.69923704 -119.26757812 147.5703125 C-110.37302242 143.03805481 -105.19806989 136.27903278 -99.8125 128.0625 C-95.69722601 121.91099795 -91.49593928 115.87930522 -87 110 C-82.64257323 104.28766449 -78.52258999 98.45266879 -74.5 92.5 C-70.02154274 85.87273426 -65.38191954 79.42289742 -60.52392578 73.06958008 C-56.60424481 67.90542296 -52.98208687 62.57303339 -49.375 57.1875 C-35.68622573 36.93703053 -35.68622573 36.93703053 -25 33 C-24.01 33 -23.02 33 -22 33 C-22.0314209 32.00202393 -22.0314209 32.00202393 -22.06347656 30.98388672 C-22.14700609 27.94774698 -22.19877603 24.91184957 -22.25 21.875 C-22.28351563 20.82828125 -22.31703125 19.7815625 -22.3515625 18.703125 C-22.4308835 12.43676639 -22.2241437 8.74830751 -18 4 C-12.72867143 -1.00776214 -6.89190982 -0.92775709 0 0 Z " fill="#CECECE" transform="translate(150,136)"/>
<path d="M0 0 C58.08 0 116.16 0 176 0 C176 10.56 176 21.12 176 32 C153.23 32.33 130.46 32.66 107 33 C110.63 34.32 114.26 35.64 118 37 C130.31590996 44.22533384 139.04125036 53.94740499 143.4375 67.8125 C145.86804259 80.58635159 144.53215304 94.56591995 137.8125 105.75 C129.92770637 117.21429199 119.78674728 125.13303115 106 128 C93.62530214 130.2163638 80.23838918 128.45606664 69.62890625 121.4296875 C67.33247905 119.7025264 65.16012406 117.89413863 63 116 C62.3709375 115.47664063 61.741875 114.95328125 61.09375 114.4140625 C57.25708252 110.96442727 55.04483984 107.40718708 52.79296875 102.76171875 C52.00249146 101.14269653 52.00249146 101.14269653 51.19604492 99.4909668 C50.8013501 98.66894775 50.40665527 97.84692871 50 97 C48.81970215 96.9906543 47.6394043 96.98130859 46.42333984 96.97167969 C42.02843002 96.93169352 37.63421387 96.86591085 33.23974609 96.79248047 C31.34074846 96.7643208 29.4416347 96.74308142 27.54248047 96.72900391 C24.80636362 96.70750482 22.07163548 96.66081992 19.3359375 96.609375 C18.06996231 96.60753204 18.06996231 96.60753204 16.77841187 96.60565186 C11.40222861 96.47320056 8.18882552 95.67107104 4 92 C-13.02687669 66.45968496 0 30.69563849 0 0 Z " fill="#F87777" transform="translate(8,312)"/>
<path d="M0 0 C96.03 0 192.06 0 291 0 C291 0.33 291 0.66 291 1 C290.00033203 1.22042969 290.00033203 1.22042969 288.98046875 1.4453125 C275.00594991 4.8461045 264.70896266 11.43854685 257.13696289 23.57104492 C249.33702674 36.44784291 250.18368611 49.4694889 252 64 C182.04 64 112.08 64 40 64 C40.33 61.36 40.66 58.72 41 56 C41.78135544 40.88377749 39.58420442 28.78456002 30.1015625 16.55078125 C22.21473474 7.9163174 11.49216043 2.78326627 0 1 C0 0.67 0 0.34 0 0 Z " fill="#CDCDCD" transform="translate(110,344)"/>
<path d="M0 0 C4.63535813 2.15213056 8.01334219 5.23793392 10 10 C10.47885139 13.8096424 10.37755228 17.54335203 10.25 21.375 C10.1675 24.88125 10.085 28.3875 10 32 C17.92 32 25.84 32 34 32 C34 39.92 34 47.84 34 56 C30.82117188 56.02578125 27.64234375 56.0515625 24.3671875 56.078125 C21.27920784 56.11656748 18.19139391 56.16172072 15.10351562 56.20751953 C12.96199491 56.23569744 10.82037082 56.25692775 8.67871094 56.27099609 C5.59516593 56.29246925 2.51285982 56.33914317 -0.5703125 56.390625 C-1.52366486 56.39185364 -2.47701721 56.39308228 -3.45925903 56.39434814 C-9.99434439 56.53745274 -13.89835077 57.77874249 -18.57641602 62.63720703 C-18.96498779 63.17200684 -19.35355957 63.70680664 -19.75390625 64.2578125 C-20.43634399 65.18182861 -20.43634399 65.18182861 -21.13256836 66.12451172 C-21.6044458 66.78467285 -22.07632324 67.44483398 -22.5625 68.125 C-23.07498291 68.82512207 -23.58746582 69.52524414 -24.11547852 70.24658203 C-25.75385483 72.49050461 -27.37751772 74.74456603 -29 77 C-30.06973538 78.47437724 -31.14004531 79.94833778 -32.2109375 81.421875 C-35.48714308 85.93846493 -38.74410925 90.46875586 -42 95 C-49.27021435 105.10656614 -56.57855153 115.18227384 -63.98022461 125.19311523 C-68.35165399 131.10686385 -72.67407375 137.05185141 -77 143 C-40.37 143.33 -3.74 143.66 34 144 C34 154.56 34 165.12 34 176 C-24.08 176 -82.16 176 -142 176 C-142 162.1 -142 162.1 -138 158 C-132.13036891 153.87390749 -125.70505065 150.69923704 -119.26757812 147.5703125 C-110.37302242 143.03805481 -105.19806989 136.27903278 -99.8125 128.0625 C-95.69722601 121.91099795 -91.49593928 115.87930522 -87 110 C-82.64257323 104.28766449 -78.52258999 98.45266879 -74.5 92.5 C-70.02154274 85.87273426 -65.38191954 79.42289742 -60.52392578 73.06958008 C-56.60424481 67.90542296 -52.98208687 62.57303339 -49.375 57.1875 C-35.68622573 36.93703053 -35.68622573 36.93703053 -25 33 C-24.01 33 -23.02 33 -22 33 C-22.0314209 32.00202393 -22.0314209 32.00202393 -22.06347656 30.98388672 C-22.14700609 27.94774698 -22.19877603 24.91184957 -22.25 21.875 C-22.28351563 20.82828125 -22.31703125 19.7815625 -22.3515625 18.703125 C-22.4308835 12.43676639 -22.2241437 8.74830751 -18 4 C-12.72867143 -1.00776214 -6.89190982 -0.92775709 0 0 Z " fill="#E5E5E6" transform="translate(150,136)"/>
<path d="M0 0 C8.78024832 7.10659395 16.62598447 17.29197951 18.7890625 28.66015625 C20.18376315 44.13100234 18.73471275 57.31359724 9 70 C0.23528905 80.49219548 -10.84506734 86.09491439 -24.3125 87.8125 C-37.49184146 88.70601468 -49.76660989 85.29753858 -59.90625 76.8359375 C-60.5971875 76.23007812 -61.288125 75.62421875 -62 75 C-62.6290625 74.47664063 -63.258125 73.95328125 -63.90625 73.4140625 C-72.62662314 65.57337613 -76.5206398 54.5049831 -77.25 43.0859375 C-77.82347213 28.08938756 -73.81859838 16.45004232 -64 5 C-60.54849761 1.91620028 -56.96173277 -0.61589633 -53 -3 C-52.28714844 -3.42925781 -51.57429688 -3.85851562 -50.83984375 -4.30078125 C-34.89177243 -13.01990573 -14.57450535 -10.08675443 0 0 Z " fill="#7A838B" transform="translate(437,353)"/>
<path d="M0 0 C8.78024832 7.10659395 16.62598447 17.29197951 18.7890625 28.66015625 C20.18376315 44.13100234 18.73471275 57.31359724 9 70 C0.23528905 80.49219548 -10.84506734 86.09491439 -24.3125 87.8125 C-37.49184146 88.70601468 -49.76660989 85.29753858 -59.90625 76.8359375 C-60.5971875 76.23007812 -61.288125 75.62421875 -62 75 C-62.6290625 74.47664063 -63.258125 73.95328125 -63.90625 73.4140625 C-72.62662314 65.57337613 -76.5206398 54.5049831 -77.25 43.0859375 C-77.82347213 28.08938756 -73.81859838 16.45004232 -64 5 C-60.54849761 1.91620028 -56.96173277 -0.61589633 -53 -3 C-52.28714844 -3.42925781 -51.57429688 -3.85851562 -50.83984375 -4.30078125 C-34.89177243 -13.01990573 -14.57450535 -10.08675443 0 0 Z " fill="#7A838B" transform="translate(133,353)"/>
<path d="M0 0 C10.56 0 21.12 0 32 0 C32 10.56 32 21.12 32 32 C42.56 32 53.12 32 64 32 C64 42.56 64 53.12 64 64 C53.44 64 42.88 64 32 64 C32 74.56 32 85.12 32 96 C21.44 96 10.88 96 0 96 C0 85.44 0 74.88 0 64 C-10.56 64 -21.12 64 -32 64 C-32 53.44 -32 42.88 -32 32 C-21.44 32 -10.88 32 0 32 C0 21.44 0 10.88 0 0 Z " fill="#F97878" transform="translate(328,176)"/>
<path d="M0 0 C1.21171875 0.00322266 2.4234375 0.00644531 3.671875 0.00976562 C4.94289063 0.01814453 6.21390625 0.02652344 7.5234375 0.03515625 C8.8021875 0.03966797 10.0809375 0.04417969 11.3984375 0.04882812 C14.56515042 0.06064422 17.73177106 0.0771181 20.8984375 0.09765625 C17.82128386 5.7907685 14.22207383 10.86866259 10.3359375 16.03515625 C9.09137334 17.72186389 7.84790016 19.40937702 6.60546875 21.09765625 C4.28047564 24.24846658 1.92309441 27.36940427 -0.46484375 30.47265625 C-7.63395854 39.96594238 -7.63395854 39.96594238 -8.73046875 51.6015625 C-7.50807763 56.45316451 -5.73062988 59.08471638 -1.49560547 61.71801758 C2.67872928 63.41483571 6.11966209 63.57277348 10.578125 63.609375 C11.39088898 63.6273262 12.20365295 63.6452774 13.04104614 63.66377258 C15.6184583 63.71763983 18.1956878 63.75169461 20.7734375 63.78515625 C22.52867112 63.81835024 24.28388071 63.85284182 26.0390625 63.88867188 C30.32554367 63.97577901 34.61121186 64.03604597 38.8984375 64.09765625 C38.8984375 72.01765625 38.8984375 79.93765625 38.8984375 88.09765625 C1.9384375 88.09765625 -35.0215625 88.09765625 -73.1015625 88.09765625 C-69.18487756 82.22262885 -65.24761693 76.42866367 -61.1015625 70.72265625 C-60.5446875 69.95373047 -59.9878125 69.18480469 -59.4140625 68.39257812 C-54.75597846 61.9721163 -50.04915788 55.58797725 -45.33618164 49.20776367 C-41.37357542 43.83845146 -37.44363643 38.44680012 -33.5390625 33.03515625 C-33.01175537 32.30594971 -32.48444824 31.57674316 -31.94116211 30.82543945 C-29.14095268 26.9476009 -26.36301844 23.05559173 -23.609375 19.14453125 C-23.0326001 18.33121338 -22.4558252 17.51789551 -21.86157227 16.67993164 C-20.76418455 15.1317832 -19.67307046 13.5791601 -18.58959961 12.02124023 C-13.52480421 4.90017218 -9.13060793 -0.04266639 0 0 Z " fill="#80BBCE" transform="translate(145.1015625,191.90234375)"/>
<path d="M0 0 C29.7 0 59.4 0 90 0 C90.0825 8.78625 90.165 17.5725 90.25 26.625 C90.28641602 29.38955566 90.32283203 32.15411133 90.36035156 35.00244141 C90.37203781 37.20214054 90.38222979 39.40184834 90.390625 41.6015625 C90.41108887 42.73682373 90.43155273 43.87208496 90.45263672 45.04174805 C90.45533689 51.16168012 90.42246238 55.34327757 86 60 C81.01068703 64.39819679 76.99524276 64.54549547 70.6640625 64.390625 C69.78471039 64.38496521 68.90535828 64.37930542 67.99935913 64.37347412 C65.20733818 64.35119084 62.41662908 64.30101063 59.625 64.25 C57.72527903 64.22992454 55.82553782 64.21167561 53.92578125 64.1953125 C49.28335334 64.15135256 44.64189863 64.08238182 40 64 C40.25380452 62.04458618 40.50760905 60.08917236 40.76141357 58.13375854 C42.50916952 42.50299005 39.85563535 29.13473943 30.1015625 16.55078125 C22.21473474 7.9163174 11.49216043 2.78326627 0 1 C0 0.67 0 0.34 0 0 Z " fill="#E5E5E5" transform="translate(414,344)"/>
<path d="M0 0 C11.98747949 -0.18095359 23.97404765 -0.32762995 35.96258545 -0.41449738 C41.52977356 -0.45619596 47.09597652 -0.51272716 52.66259766 -0.60351562 C58.03784826 -0.69063132 63.41215321 -0.73831422 68.78805542 -0.75901794 C70.83583459 -0.77376597 72.8835637 -0.80256705 74.93093872 -0.84584045 C90.99990525 -1.17187484 90.99990525 -1.17187484 95.98454285 1.74867249 C97.97955165 3.7319878 99.467109 5.65406921 101 8 C102.74170121 9.51336103 104.50886173 10.99851643 106.3125 12.4375 C110.13733124 15.50478157 113.92447546 18.60719695 117.6875 21.75 C121.94104114 25.24572634 126.29309876 28.15809736 131 31 C131 31.33 131 31.66 131 32 C87.77 32 44.54 32 0 32 C0 21.44 0 10.88 0 0 Z " fill="#ED5D5D" transform="translate(184,312)"/>
<path d="M0 0 C29.37 0 58.74 0 89 0 C89 0.33 89 0.66 89 1 C88.00033203 1.22042969 88.00033203 1.22042969 86.98046875 1.4453125 C73.00594991 4.8461045 62.70896266 11.43854685 55.13696289 23.57104492 C47.38574777 36.36741009 48.12248248 49.58751333 50 64 C44.41330092 64.09914961 38.82711814 64.17160105 33.23974609 64.21972656 C31.34056675 64.23979629 29.44144885 64.26705851 27.54248047 64.30175781 C24.80681161 64.35048109 22.07196229 64.37301507 19.3359375 64.390625 C18.49195404 64.41127014 17.64797058 64.43191528 16.77841187 64.45318604 C11.3646505 64.45522961 8.21328434 63.71410929 4 60 C-1.18686455 54.53838462 -0.51861927 48.702221 -0.390625 41.6015625 C-0.38659668 40.54606201 -0.38256836 39.49056152 -0.37841797 38.40307617 C-0.3575594 34.47687284 -0.30171402 30.55091816 -0.25 26.625 C-0.1675 17.83875 -0.085 9.0525 0 0 Z " fill="#CDCDCD" transform="translate(8,344)"/>
<path d="M0 0 C-0.06960938 1.72283203 -0.06960938 1.72283203 -0.140625 3.48046875 C-0.59439331 19.51130633 2.47800929 33.00622811 13.5625 45.1875 C21.49005042 52.64605411 31.18096 57.12409571 42 58 C42.80824219 58.06960938 43.61648438 58.13921875 44.44921875 58.2109375 C54.33127937 58.62467917 63.9216742 56.32312713 72.1953125 50.890625 C74 50 74 50 77 51 C73.51818913 62.26468224 65.53765237 71.45201373 55.44921875 77.5390625 C42.07062614 84.48212574 28.71910665 85.35310634 14.26953125 81.21875 C7.9255145 78.93687111 3.04063054 75.41995588 -2 71 C-2.6290625 70.47664063 -3.258125 69.95328125 -3.90625 69.4140625 C-12.62662314 61.57337613 -16.5206398 50.5049831 -17.25 39.0859375 C-17.73709199 26.22873848 -15.43101355 15.15036029 -7 5 C-1.94131455 0 -1.94131455 0 0 0 Z " fill="#5D6972" transform="translate(377,357)"/>
<path d="M0 0 C-0.06960937 1.72283203 -0.06960937 1.72283203 -0.140625 3.48046875 C-0.59439331 19.51130633 2.47800929 33.00622811 13.5625 45.1875 C21.49005042 52.64605411 31.18096 57.12409571 42 58 C42.80824219 58.06960938 43.61648437 58.13921875 44.44921875 58.2109375 C54.33127937 58.62467917 63.9216742 56.32312713 72.1953125 50.890625 C74 50 74 50 77 51 C73.51818913 62.26468224 65.53765237 71.45201373 55.44921875 77.5390625 C42.07062614 84.48212574 28.71910665 85.35310634 14.26953125 81.21875 C7.9255145 78.93687111 3.04063054 75.41995588 -2 71 C-2.6290625 70.47664063 -3.258125 69.95328125 -3.90625 69.4140625 C-12.62662314 61.57337613 -16.5206398 50.5049831 -17.25 39.0859375 C-17.73709199 26.22873848 -15.43101355 15.15036029 -7 5 C-1.94131455 0 -1.94131455 0 0 0 Z " fill="#5D6972" transform="translate(73,357)"/>
<path d="M0 0 C5.94 0 11.88 0 18 0 C18 21.12 18 42.24 18 64 C12.06 64.103125 6.12 64.20625 0 64.3125 C-2.78824219 64.38078003 -2.78824219 64.38078003 -5.6328125 64.45043945 C-7.13019006 64.46506228 -8.62758773 64.47779869 -10.125 64.48828125 C-10.88296875 64.51386108 -11.6409375 64.53944092 -12.421875 64.5657959 C-18.38940393 64.57060222 -22.36811114 62.74729963 -27 59 C-30.45374786 54.6344627 -30.81794027 50.73387595 -30.65234375 45.2890625 C-29.51011946 39.5300634 -26.02035246 35.39244387 -22.46386719 30.88671875 C-20.26957479 28.05858472 -18.20279906 25.14279951 -16.125 22.22851562 C-15.00136402 20.66140757 -13.86591057 19.10270473 -12.71875 17.55273438 C-10.28033457 14.25520281 -7.93699782 11.03933109 -6.0234375 7.40625 C-4.3125 4.375 -4.3125 4.375 0 0 Z " fill="#A6CFE0" transform="translate(166,192)"/>
<path d="M0 0 C24.42 0 48.84 0 74 0 C74 13.2 74 26.4 74 40 C63.11 40 52.22 40 41 40 C40.01 36.7 39.02 33.4 38 30 C32.74806221 17.50675405 24.49292406 10.04183101 12.3984375 4.375 C8.25224007 2.69745805 4.41249404 1.68469735 0 1 C0 0.67 0 0.34 0 0 Z " fill="#E5E5E5" transform="translate(110,344)"/>
<path d="M0 0 C15.84 0 31.68 0 48 0 C48 14 48 14 46.375 17.625 C42.49956399 21.50043601 39.24377775 24.19353343 33.64697266 24.45410156 C31.98586796 24.45347453 30.32467056 24.43124604 28.6640625 24.390625 C27.78471039 24.38496521 26.90535828 24.37930542 25.99935913 24.37347412 C23.20733818 24.35119084 20.41662908 24.30101063 17.625 24.25 C15.72527903 24.22992454 13.82553782 24.21167561 11.92578125 24.1953125 C7.28335334 24.15135256 2.64189863 24.08238182 -2 24 C-1.855625 23.01 -1.71125 22.02 -1.5625 21 C-0.77777342 14.02465259 -0.43785499 7.00567986 0 0 Z " fill="#CECECE" transform="translate(456,384)"/>
<path d="M0 0 C8.91 0 17.82 0 27 0 C27.825 2.165625 28.65 4.33125 29.5 6.5625 C32.69622009 14.73536661 36.74767809 22.33770156 41 30 C41.495 30.99 41.495 30.99 42 32 C28.14 32 14.28 32 0 32 C0 21.44 0 10.88 0 0 Z " fill="#ED5D5D" transform="translate(8,312)"/>
<path d="M0 0 C28.05 0 56.1 0 85 0 C85 0.33 85 0.66 85 1 C84.00033203 1.22042969 84.00033203 1.22042969 82.98046875 1.4453125 C68.09747963 5.06718677 58.34300664 12.28802242 50 25 C34.72734886 22.38576242 11.04698985 11.04698985 0 0 Z " fill="#E5E5E5" transform="translate(316,344)"/>
<path d="M0 0 C4.63535813 2.15213056 8.01334219 5.23793392 10 10 C10.47885139 13.8096424 10.37755228 17.54335203 10.25 21.375 C10.1675 24.88125 10.085 28.3875 10 32 C-0.56 32 -11.12 32 -22 32 C-22.0825 28.49375 -22.165 24.9875 -22.25 21.375 C-22.28641602 20.28106934 -22.32283203 19.18713867 -22.36035156 18.06005859 C-22.42918861 12.00794947 -22.03642982 8.59622666 -18 4 C-12.72867143 -1.00776214 -6.89190982 -0.92775709 0 0 Z " fill="#F97878" transform="translate(150,136)"/>
<path d="M0 0 C4.81477644 2.40738822 8.70957093 5.77392733 10.75 10.875 C11.44579247 16.78923599 11.3145863 20.91763434 8 26 C4.009971 30.0445376 0.40608246 32.12484358 -5.3125 32.3125 C-9.94226662 32.25237316 -12.4369151 31.06591027 -16 28 C-20.39893104 23.00661882 -21.35676337 20.08984773 -21.28125 13.5390625 C-20.73016315 8.56397287 -17.99302299 5.87480597 -14.375 2.6875 C-9.71860985 -0.62098774 -5.60468123 -0.62082623 0 0 Z " fill="#A5CEDF" transform="translate(413,376)"/>
<path d="M0 0 C4.81477644 2.40738822 8.70957093 5.77392733 10.75 10.875 C11.44579247 16.78923599 11.3145863 20.91763434 8 26 C4.009971 30.0445376 0.40608246 32.12484358 -5.3125 32.3125 C-9.94226662 32.25237316 -12.4369151 31.06591027 -16 28 C-20.39893104 23.00661882 -21.35676337 20.08984773 -21.28125 13.5390625 C-20.73016315 8.56397287 -17.99302299 5.87480597 -14.375 2.6875 C-9.71860985 -0.62098774 -5.60468123 -0.62082623 0 0 Z " fill="#A5CEDF" transform="translate(109,376)"/>
<path d="M0 0 C0.05534912 0.59949463 0.11069824 1.19898926 0.16772461 1.81665039 C0.42253147 4.56543572 0.67999616 7.31396606 0.9375 10.0625 C1.02451172 11.00544922 1.11152344 11.94839844 1.20117188 12.91992188 C1.28818359 13.84482422 1.37519531 14.76972656 1.46484375 15.72265625 C1.543396 16.56578369 1.62194824 17.40891113 1.70288086 18.27758789 C2.05760398 21.52780769 2.53762013 24.7633409 3 28 C-5.91 28 -14.82 28 -24 28 C-24 14.1 -24 14.1 -20 10 C-14.96012583 6.16783761 -6.40683019 0 0 0 Z " fill="#CECECE" transform="translate(32,284)"/>
<path d="M0 0 C0.66 -0.0103125 1.32 -0.020625 2 -0.03125 C4.91796104 0.7438334 6.0931088 2.19104167 8 4.5 C8.51757812 7.09375 8.51757812 7.09375 8.53125 10 C8.53640625 11.051875 8.5415625 12.10375 8.546875 13.1875 C8.53140625 14.280625 8.5159375 15.37375 8.5 16.5 C8.51546875 17.593125 8.5309375 18.68625 8.546875 19.8125 C8.54171875 20.864375 8.5365625 21.91625 8.53125 23 C8.52673828 23.9590625 8.52222656 24.918125 8.51757812 25.90625 C7.857725 29.21298564 6.58886445 30.40908706 4 32.5 C2 33.03125 2 33.03125 0 33 C-0.99 33.01546875 -0.99 33.01546875 -2 33.03125 C-4.91796104 32.2561666 -6.0931088 30.80895833 -8 28.5 C-8.51757812 25.90625 -8.51757812 25.90625 -8.53125 23 C-8.53640625 21.948125 -8.5415625 20.89625 -8.546875 19.8125 C-8.53140625 18.719375 -8.5159375 17.62625 -8.5 16.5 C-8.51546875 15.406875 -8.5309375 14.31375 -8.546875 13.1875 C-8.53914062 11.6096875 -8.53914062 11.6096875 -8.53125 10 C-8.52673828 9.0409375 -8.52222656 8.081875 -8.51757812 7.09375 C-7.60329874 2.51200272 -4.67433964 -0.07303656 0 0 Z " fill="#F97777" transform="translate(144,63.5)"/>
<path d="M0 0 C0.66257813 0.09152344 1.32515625 0.18304688 2.0078125 0.27734375 C4.57416763 1.35650145 5.40724874 2.71582835 6.875 5.0625 C7.26318359 7.36499023 7.26318359 7.36499023 7.2734375 9.87109375 C7.27923828 11.23911133 7.27923828 11.23911133 7.28515625 12.63476562 C7.27355469 13.58029297 7.26195312 14.52582031 7.25 15.5 C7.26160156 16.44166016 7.27320313 17.38332031 7.28515625 18.35351562 C7.24711051 27.33865007 7.24711051 27.33865007 3.875 31.0625 C1.24621839 32.18526504 -1.28596191 32.26855922 -4.125 32.0625 C-7.39211826 30.38705474 -7.952811 29.57906699 -9.125 26.0625 C-9.4292547 22.60940178 -9.4484943 19.15242872 -9.5 15.6875 C-9.53738281 14.74132812 -9.57476562 13.79515625 -9.61328125 12.8203125 C-9.67256378 8.13040594 -9.65669634 5.80412472 -6.859375 1.90234375 C-4.1031868 0.04782283 -3.1974769 -0.55799107 0 0 Z " fill="#FDFEFE" transform="translate(169.125,199.9375)"/>
<path d="M0 0 C2.5 1.5 2.5 1.5 4 4 C4.78300075 8.27091317 4.97936742 10.48991393 2.6015625 14.15625 C0.82933804 16.23029434 -1.02244732 18.12215585 -3 20 C-4.2065625 21.2375 -4.2065625 21.2375 -5.4375 22.5 C-9.27374566 24.74560721 -11.57999234 24.56127081 -16 24 C-18.5 22.5 -18.5 22.5 -20 20 C-20.78300075 15.72908683 -20.97936742 13.51008607 -18.6015625 9.84375 C-16.82933804 7.76970566 -14.97755268 5.87784415 -13 4 C-12.195625 3.175 -11.39125 2.35 -10.5625 1.5 C-6.72625434 -0.74560721 -4.42000766 -0.56127081 0 0 Z " fill="#F97878" transform="translate(188,88)"/>
<path d="M0 0 C4.33159896 1.17706493 7.14266241 4.41233641 10.15625 7.5859375 C11.39375 8.7925 11.39375 8.7925 12.65625 10.0234375 C14.90185721 13.85968316 14.71752081 16.16592984 14.15625 20.5859375 C12.65625 23.0859375 12.65625 23.0859375 10.15625 24.5859375 C5.88533683 25.36893825 3.66633607 25.56530492 0 23.1875 C-2.07404434 21.41527554 -3.96590585 19.56349018 -5.84375 17.5859375 C-6.66875 16.7815625 -7.49375 15.9771875 -8.34375 15.1484375 C-10.58935721 11.31219184 -10.40502081 9.00594516 -9.84375 4.5859375 C-7.45735798 0.60861746 -4.61578931 -0.22390023 0 0 Z " fill="#F97777" transform="translate(105.84375,87.4140625)"/>
<path d="M0 0 C15.51 0 31.02 0 47 0 C47 0.33 47 0.66 47 1 C46.33355469 1.14695312 45.66710937 1.29390625 44.98046875 1.4453125 C35.13499466 3.84127403 26.39884334 7.99056947 19 15 C18.67 15.66 18.34 16.32 18 17 C13.66617869 16.54920062 11.31443834 13.72400104 8.4375 10.75 C7.95603516 10.27175781 7.47457031 9.79351562 6.97851562 9.30078125 C4.03278776 6.31048254 2.20640738 3.67734563 0 0 Z " fill="#E4E4E4" transform="translate(50,344)"/>
<path d="M0 0 C0.66 1.32 1.32 2.64 2 4 C5.09131969 8.69422619 7.87436927 10.12717339 13 12 C13 12.33 13 12.66 13 13 C8.71 13 4.42 13 0 13 C0 8.71 0 4.42 0 0 Z " fill="#E4E4E4" transform="translate(184,395)"/>
</svg>
